<?xml version="1.0" standalone="no"?>
<!DOCTYPE svg PUBLIC "-//W3C//DTD SVG 20010904//EN"
 "http://www.w3.org/TR/2001/REC-SVG-20010904/DTD/svg10.dtd">
<svg version="1.0" xmlns="http://www.w3.org/2000/svg"
 width="1377.000000pt" height="1377.000000pt" viewBox="0 0 1377.000000 1377.000000"
 preserveAspectRatio="xMidYMid meet">
<metadata>
Created by potrace 1.11, written by Peter Selinger 2001-2013
</metadata>
<g transform="translate(0.000000,1377.000000) scale(0.100000,-0.100000)"
fill="#000000" stroke="none">
<path d="M6598 13765 c-1 -1 -64 -6 -138 -9 -74 -4 -148 -9 -165 -11 -16 -2
-62 -6 -100 -10 -39 -3 -81 -7 -95 -9 -14 -3 -52 -7 -85 -11 -32 -4 -66 -8
-75 -10 -8 -1 -37 -6 -63 -9 -27 -4 -112 -18 -190 -32 -78 -14 -155 -27 -172
-30 -16 -3 -85 -19 -152 -35 -67 -15 -132 -30 -145 -33 -180 -35 -774 -230
-965 -317 -24 -10 -45 -19 -47 -19 -3 0 -39 -16 -80 -35 -42 -19 -78 -35 -81
-35 -16 0 -389 -191 -530 -271 -426 -242 -748 -466 -1090 -759 -194 -166 -189
-161 -335 -304 -195 -192 -280 -283 -479 -511 -206 -237 -495 -648 -696 -993
-40 -69 -160 -291 -185 -343 -17 -35 -35 -71 -40 -79 -5 -8 -23 -46 -40 -85
-18 -38 -42 -92 -55 -120 -176 -382 -355 -927 -440 -1335 -26 -123 -55 -275
-61 -310 -3 -25 -8 -54 -10 -65 -3 -11 -7 -36 -9 -55 -3 -19 -8 -48 -10 -65
-3 -16 -7 -52 -10 -80 -4 -27 -8 -60 -10 -73 -2 -13 -7 -53 -10 -90 -4 -37 -8
-83 -10 -102 -27 -234 -27 -959 0 -1225 2 -27 7 -77 11 -110 7 -76 11 -114 18
-162 3 -21 8 -61 11 -89 3 -28 8 -61 10 -75 3 -13 14 -78 25 -144 23 -138 26
-154 46 -250 9 -38 17 -79 20 -90 2 -11 6 -29 8 -40 26 -120 144 -541 165
-590 5 -11 20 -56 34 -100 52 -162 134 -368 249 -625 87 -195 220 -448 340
-650 202 -339 462 -700 702 -975 162 -185 237 -265 431 -455 628 -618 1431
-1136 2270 -1465 411 -161 931 -307 1315 -370 52 -8 104 -17 115 -19 25 -5
155 -24 215 -31 25 -3 61 -7 80 -10 71 -9 137 -16 195 -20 33 -2 107 -7 165
-11 58 -4 245 -8 415 -8 265 0 378 3 605 19 89 6 296 29 360 40 14 3 45 8 70
11 25 3 54 8 65 10 11 2 40 7 65 10 25 3 99 17 165 31 66 13 131 27 145 29 14
3 45 10 70 15 25 6 52 12 60 14 59 13 280 71 347 91 46 14 85 25 88 24 3 0 19
7 35 15 17 9 30 13 30 11 0 -5 290 95 410 142 523 202 1094 514 1540 841 41
30 91 66 110 80 40 29 36 26 155 122 306 247 627 553 870 830 222 252 501 624
640 853 17 27 37 59 45 72 30 45 178 301 225 389 216 401 408 878 544 1350 75
261 151 615 186 870 3 22 7 49 10 60 2 11 7 47 10 80 3 33 10 94 15 135 5 41
12 107 14 145 3 39 9 111 13 160 14 178 7 776 -12 960 -2 22 -7 72 -10 110
-17 199 -67 546 -110 750 -23 111 -82 359 -101 425 -9 30 -25 87 -37 125 -61
212 -175 538 -237 680 -117 268 -159 358 -231 500 -218 429 -467 813 -775
1195 -73 91 -144 179 -159 195 -267 303 -508 537 -855 829 -435 366 -1098 767
-1649 997 -53 22 -105 44 -116 49 -152 67 -687 245 -802 266 -12 2 -34 9 -48
14 -14 5 -25 7 -25 5 0 -2 -11 0 -25 5 -14 5 -36 12 -48 14 -12 3 -80 18 -152
34 -71 16 -146 32 -165 36 -19 3 -46 8 -60 11 -58 12 -199 34 -250 40 -30 4
-57 8 -60 10 -3 2 -33 6 -67 10 -34 3 -70 7 -80 9 -10 2 -77 9 -148 15 -72 6
-159 13 -195 17 -69 6 -736 15 -742 9z"/>
</g>
</svg>
